# xmcd
#
# Track frame offsets:
#	150
#	11590
#	21355
#	30665
#	40375
#	51280
#	59465
#	70147
#	78960
#	91520
#	103135
#	114375
#	124225
#	135747
#	147227
#	157617
#	166957
#	178610
#	192430
#	199180
#	206572
#	218397
#	226602
#	235510
#	246955
#	253562
#	263237
#	274957
#	284225
#	295652
#	306617
#	318510
#	329442
#
# Disc length: 4541 seconds
#
# Revision: 0
# Processed by: cddbd v1.5.1PL0 Copyright (c) Steve Scherf et al.
# Submitted via: audiograbber 1.83.01
#
DISCID=e211bb21
DTITLE=Hayden Thompson - Love me baby
DYEAR=1900
DGENRE=Country
TTITLE0=Fairlane rock
TTITLE1=Love me baby
TTITLE2=Blues blues blues
TTITLE3=Don't you worry
TTITLE4=One broken heart
TTITLE5=Mama, mama, mama
TTITLE6=Rockabilly gal
TTITLE7=Call me shorty
TTITLE8=Kansas City blues
TTITLE9=I feel the blues coming on
TTITLE10=I love country music
TTITLE11=Brown eyed handsome man
TTITLE12=It won't be long until the summer
TTITLE13=Act like you love me
TTITLE14=Frankie and Johnny
TTITLE15=Pretending
TTITLE16=Going steady
TTITLE17=Pardon me (version one)
TTITLE18=Old Kris Kringle
TTITLE19=That's all rigth mama
TTITLE20=I'll hold you iin my heart
TTITLE21=Queen bee
TTITLE22=Shake rattle and roll
TTITLE23=Funny how time slips away
TTITLE24=The key to my kingdom
TTITLE25=Good rocking tonight
TTITLE26=Pardon me (version two)
TTITLE27=Guess I'd better be  moving along
TTITLE28=Love me baby (alternate take)
TTITLE29=One broken heart
TTITLE30=You are my sunshine
TTITLE31=Blues blues blues (version two)
TTITLE32=Congratulations to you Joe
EXTD=
EXTT0=
EXTT1=
EXTT2=
EXTT3=
EXTT4=
EXTT5=
EXTT6=
EXTT7=
EXTT8=
EXTT9=
EXTT10=
EXTT11=
EXTT12=
EXTT13=
EXTT14=
EXTT15=
EXTT16=
EXTT17=
EXTT18=
EXTT19=
EXTT20=
EXTT21=
EXTT22=
EXTT23=
EXTT24=
EXTT25=
EXTT26=
EXTT27=
EXTT28=
EXTT29=
EXTT30=
EXTT31=
EXTT32=
PLAYORDER=
